<?xml version="1.0" standalone="no"?>
<!DOCTYPE svg PUBLIC "-//W3C//DTD SVG 20010904//EN"
 "http://www.w3.org/TR/2001/REC-SVG-20010904/DTD/svg10.dtd">
<svg version="1.0" xmlns="http://www.w3.org/2000/svg"
 width="376.000000pt" height="177.000000pt" viewBox="0 0 376.000000 177.000000"
 preserveAspectRatio="xMidYMid meet">

<g transform="translate(0.000000,177.000000) scale(0.100000,-0.100000)"
fill="#000000" stroke="none">
<path d="M1658 1700 l-73 -69 81 -1 c76 0 82 1 109 30 16 17 33 30 38 30 9 0
150 -129 357 -325 47 -45 119 -112 160 -150 41 -39 112 -105 157 -148 l83 -79
307 7 c170 4 309 8 310 9 2 1 -68 67 -154 147 -87 79 -187 172 -223 205 -36
34 -150 141 -255 238 l-190 175 -317 1 -317 0 -73 -70z"/>
<path d="M1130 1458 c-36 -34 -144 -136 -240 -228 -96 -91 -251 -238 -344
-325 l-168 -160 82 -3 82 -3 196 187 c108 103 238 226 287 273 50 47 127 121
172 165 l82 79 163 -154 c90 -84 204 -192 253 -240 50 -47 144 -136 209 -197
l119 -112 741 0 c728 0 740 0 721 19 -11 10 -49 44 -85 75 l-65 56 -409 0
-409 0 -136 127 c-75 70 -167 157 -206 194 -38 36 -128 121 -200 187 l-130
121 -325 0 -325 0 -65 -61z"/>
<path d="M1120 895 l0 -155 155 0 155 0 0 155 0 155 -155 0 -155 0 0 -155z
m150 80 l0 -65 -70 0 -70 0 0 65 0 65 70 0 70 0 0 -65z m150 0 l0 -65 -70 0
-70 0 0 49 c0 78 3 81 76 81 l64 0 0 -65z m-150 -155 l0 -70 -70 0 -70 0 0 70
0 70 70 0 70 0 0 -70z m150 0 l0 -71 -67 3 -68 3 -3 68 -3 67 71 0 70 0 0 -70z"/>
<path d="M362 513 l3 -28 1588 -3 1587 -2 0 30 0 30 -1591 0 -1590 0 3 -27z"/>
<path d="M1692 328 c-29 -14 -38 -51 -25 -100 6 -21 7 -38 3 -38 -3 0 -16 -9
-28 -20 -26 -25 -30 -81 -6 -104 22 -22 46 -26 154 -23 85 2 95 4 99 22 3 16
1 17 -12 7 -20 -17 -50 -4 -42 17 4 9 12 30 18 46 5 17 16 34 24 38 26 16 12
27 -31 27 -50 0 -67 -14 -37 -29 13 -7 17 -17 14 -31 -9 -34 -20 -32 -53 10
l-32 40 31 29 c70 65 10 150 -77 109z m72 -34 c11 -29 -30 -80 -51 -63 -13 12
-18 61 -6 72 12 13 51 7 57 -9z m-25 -170 c28 -37 32 -47 20 -55 -52 -33 -113
20 -87 76 16 35 28 31 67 -21z"/>
<path d="M0 176 l0 -136 28 0 c27 0 27 1 24 55 l-4 55 40 0 c43 0 67 -21 94
-81 11 -25 19 -29 50 -29 l37 0 -39 56 -40 57 33 16 c27 13 32 22 35 56 5 71
-9 79 -142 83 l-116 4 0 -136z m200 79 c16 -20 3 -54 -24 -61 -12 -3 -45 -4
-72 -2 -49 3 -49 3 -52 41 l-3 37 69 0 c49 0 73 -4 82 -15z"/>
<path d="M373 251 c-49 -23 -63 -45 -63 -101 0 -34 6 -48 34 -76 30 -30 40
-34 87 -34 68 0 99 16 122 60 34 66 0 140 -72 160 -49 13 -59 13 -108 -9z
m101 -32 c13 -7 30 -24 36 -40 25 -59 -41 -124 -101 -99 -56 23 -68 94 -23
129 30 24 52 26 88 10z"/>
<path d="M677 256 c-59 -22 -86 -72 -72 -135 11 -50 47 -75 120 -79 63 -4 66
-3 100 31 38 38 46 82 23 131 -24 53 -103 77 -171 52z m107 -47 c44 -35 32
-108 -21 -126 -43 -15 -88 2 -103 36 -32 79 56 143 124 90z"/>
<path d="M1213 262 c-51 -15 -78 -64 -55 -98 12 -19 49 -34 84 -34 48 0 78
-10 78 -26 0 -33 -102 -41 -138 -11 -10 8 -16 7 -23 -4 -5 -8 -9 -17 -9 -21 0
-12 64 -28 115 -28 62 0 105 27 105 66 0 40 -31 61 -103 69 -41 5 -68 12 -71
21 -12 32 82 47 121 19 18 -13 22 -13 34 1 15 19 4 28 -51 44 -39 11 -54 11
-87 2z"/>
<path d="M2757 255 c-59 -20 -86 -71 -72 -134 11 -50 47 -75 120 -79 63 -4 66
-3 100 31 27 27 35 43 35 71 0 55 -23 91 -70 110 -48 19 -63 19 -113 1z m108
-50 c41 -41 30 -105 -22 -122 -42 -15 -88 2 -102 35 -35 83 62 150 124 87z"/>
<path d="M910 150 l0 -110 28 0 c26 0 27 2 27 47 l0 48 53 0 c45 0 52 3 52 20
0 17 -7 20 -52 20 -50 0 -53 2 -53 25 0 25 1 25 78 25 67 0 77 2 77 18 0 15
-12 17 -105 17 l-105 0 0 -110z"/>
<path d="M2145 150 l0 -110 28 0 c25 0 27 3 27 39 0 23 6 44 16 52 14 11 20 7
49 -27 19 -21 34 -45 35 -51 0 -8 15 -13 41 -13 l41 0 -58 65 c-33 39 -53 69
-48 74 5 5 29 25 52 45 l44 36 -34 0 c-27 0 -45 -10 -84 -45 l-49 -46 -3 46
c-3 41 -5 45 -30 45 l-27 0 0 -110z"/>
<path d="M2425 150 l0 -110 30 0 c30 0 30 1 27 45 l-4 45 50 0 c54 0 102 14
114 33 4 7 8 24 8 39 0 44 -32 58 -135 58 l-90 0 0 -110z m163 71 c8 -5 12
-17 10 -27 -3 -16 -14 -20 -61 -22 l-57 -3 0 31 c0 29 1 30 48 30 26 0 53 -4
60 -9z"/>
<path d="M2988 150 l-3 -110 90 0 c110 0 139 12 143 60 3 24 -2 38 -14 47 -16
12 -16 14 -1 31 22 24 21 38 -3 62 -17 17 -33 20 -114 20 l-95 0 -3 -110z
m162 70 c11 -6 17 -17 14 -25 -5 -11 -22 -15 -65 -15 -51 0 -59 3 -59 18 0 10
3 22 7 25 10 11 82 8 103 -3z m8 -89 c8 -5 12 -17 10 -27 -3 -16 -14 -20 -66
-22 l-62 -3 0 31 c0 30 1 30 53 30 28 0 58 -4 65 -9z"/>
<path d="M3302 162 c-24 -53 -46 -103 -49 -110 -3 -8 5 -12 26 -12 18 0 31 5
31 13 0 17 52 137 59 137 11 0 72 -131 66 -141 -4 -5 8 -9 24 -9 17 0 31 2 31
4 0 2 -20 47 -45 99 -25 53 -45 101 -45 107 0 5 -12 10 -27 10 -26 -1 -32 -9
-71 -98z"/>
<path d="M3562 244 c-38 -27 -21 -104 24 -104 21 0 18 -8 -22 -56 l-35 -44 35
0 c20 0 36 5 36 10 0 6 10 26 23 45 18 28 28 35 55 35 31 0 32 -1 32 -45 0
-41 2 -45 25 -45 l25 0 0 110 0 110 -88 0 c-63 0 -94 -4 -110 -16z m148 -44
c0 -31 -2 -32 -45 -32 -60 0 -73 3 -79 18 -11 29 13 44 70 44 53 0 54 0 54
-30z"/>
</g>
</svg>
