<?xml version="1.0" standalone="no"?>
<!DOCTYPE svg PUBLIC "-//W3C//DTD SVG 20010904//EN"
 "http://www.w3.org/TR/2001/REC-SVG-20010904/DTD/svg10.dtd">
<svg version="1.0" xmlns="http://www.w3.org/2000/svg"
 width="1280.000000pt" height="720.000000pt" viewBox="0 0 1280.000000 720.000000"
 preserveAspectRatio="xMidYMid meet">

<g transform="translate(0.000000,720.000000) scale(0.100000,-0.100000)"
fill="#000000" stroke="none">
<path d="M6118 4730 l-73 -69 81 -1 c77 0 82 1 109 30 16 17 35 29 41 28 10
-3 412 -374 667 -617 l88 -83 202 6 c111 3 251 6 311 6 l110 0 -30 28 c-46 44
-180 168 -299 278 -61 56 -198 183 -305 283 l-195 180 -317 1 -317 0 -73 -70z"/>
<path d="M5570 4469 c-47 -45 -114 -108 -150 -142 -372 -352 -580 -550 -580
-553 0 -2 37 -4 83 -4 l82 0 85 83 c96 93 250 239 390 372 52 49 132 125 177
169 l82 79 178 -168 c422 -400 500 -474 534 -504 l37 -31 738 2 738 3 -84 72
-85 73 -409 0 -409 0 -136 127 c-75 70 -170 160 -211 199 -41 39 -132 124
-201 188 l-127 116 -323 0 -324 -1 -85 -80z"/>
<path d="M4822 3543 l3 -28 1588 -3 1587 -2 0 30 0 30 -1591 0 -1590 0 3 -27z"/>
<path d="M6152 3358 c-29 -14 -38 -51 -25 -100 6 -21 7 -38 3 -38 -3 0 -16 -9
-28 -20 -26 -25 -30 -81 -6 -104 22 -22 46 -26 154 -23 85 2 95 4 99 22 3 16
1 17 -12 7 -20 -17 -50 -4 -42 17 4 9 12 30 18 46 5 17 16 34 24 38 24 15 13
24 -31 25 -49 2 -67 -11 -37 -27 13 -7 17 -17 14 -31 -9 -34 -20 -32 -53 10
l-32 40 31 29 c70 65 10 150 -77 109z m72 -34 c7 -18 -5 -44 -29 -64 -14 -12
-18 -11 -26 1 -10 16 -12 63 -2 72 12 13 51 7 57 -9z m-25 -170 c28 -37 32
-47 20 -55 -52 -33 -113 20 -87 76 16 35 28 31 67 -21z"/>
<path d="M4450 3206 l0 -136 33 0 32 0 -3 55 -4 55 40 0 c43 0 67 -21 94 -81
11 -25 19 -29 50 -29 l37 0 -39 56 -40 57 33 16 c27 13 32 22 35 56 5 72 -8
80 -147 83 l-121 4 0 -136z m210 79 c16 -20 3 -54 -24 -61 -12 -3 -45 -4 -72
-2 -49 3 -49 3 -52 41 l-3 37 69 0 c49 0 73 -4 82 -15z"/>
<path d="M4833 3281 c-49 -23 -63 -45 -63 -101 0 -34 6 -48 34 -76 30 -30 40
-34 88 -34 67 0 98 16 121 60 34 66 0 140 -72 160 -49 13 -59 13 -108 -9z
m101 -32 c49 -23 55 -92 11 -129 -27 -23 -85 -18 -106 9 -28 35 -25 85 7 110
30 24 52 26 88 10z"/>
<path d="M5137 3285 c-59 -20 -86 -71 -72 -134 11 -50 47 -75 120 -79 63 -4
66 -3 100 31 27 27 35 43 35 71 0 55 -23 91 -70 110 -48 19 -63 19 -113 1z
m107 -46 c28 -22 35 -64 16 -99 -14 -27 -64 -41 -99 -29 -57 20 -65 106 -12
134 37 20 64 18 95 -6z"/>
<path d="M5473 3293 l-103 -4 0 -109 0 -110 28 0 c26 0 27 2 27 47 l0 48 53 0
c45 0 52 3 52 20 0 17 -7 20 -52 20 -50 0 -53 2 -53 25 0 25 1 25 78 25 73 0
77 1 77 23 0 12 -1 21 -2 20 -2 -1 -49 -4 -105 -5z"/>
<path d="M5673 3292 c-51 -15 -78 -64 -55 -98 12 -19 49 -34 84 -34 73 0 102
-26 57 -51 -23 -12 -105 -4 -114 12 -10 15 -22 10 -28 -10 -6 -25 35 -41 108
-41 62 0 105 27 105 66 0 41 -31 61 -104 69 -54 6 -66 11 -66 25 0 32 78 42
117 15 18 -13 22 -13 34 1 15 19 4 28 -51 44 -39 11 -54 11 -87 2z"/>
<path d="M7217 3285 c-59 -20 -86 -71 -72 -134 11 -50 47 -75 120 -79 63 -4
66 -3 100 31 27 27 35 43 35 71 0 55 -23 91 -70 110 -48 19 -63 19 -113 1z
m108 -50 c42 -41 30 -104 -25 -123 -63 -22 -120 28 -104 92 14 57 86 74 129
31z"/>
<path d="M6605 3180 l0 -110 28 0 c25 0 27 3 27 39 0 23 6 44 16 52 14 11 20
7 49 -27 19 -21 34 -45 35 -51 0 -8 15 -13 41 -13 l41 0 -58 65 c-33 39 -53
69 -48 74 5 5 29 25 52 45 l44 36 -34 0 c-27 0 -45 -10 -84 -46 l-49 -46 -3
46 c-3 43 -5 46 -30 46 l-27 0 0 -110z"/>
<path d="M6885 3180 l0 -110 30 0 c30 0 30 1 27 45 l-4 45 50 0 c54 0 102 14
114 33 4 7 8 24 8 39 0 44 -32 58 -135 58 l-90 0 0 -110z m163 71 c8 -5 12
-17 10 -27 -3 -16 -14 -20 -61 -22 l-57 -3 0 31 c0 29 1 30 48 30 26 0 53 -4
60 -9z"/>
<path d="M7448 3180 l-3 -110 90 0 c110 0 139 12 143 60 3 24 -2 38 -14 47
-16 12 -16 14 -1 31 22 24 21 38 -3 62 -17 17 -33 20 -114 20 l-95 0 -3 -110z
m162 70 c11 -6 17 -17 14 -25 -5 -11 -22 -15 -65 -15 -51 0 -59 3 -59 18 0 10
3 22 7 25 10 11 82 8 103 -3z m8 -89 c8 -5 12 -17 10 -27 -3 -16 -14 -20 -66
-22 l-62 -3 0 31 c0 30 1 30 53 30 28 0 58 -4 65 -9z"/>
<path d="M7762 3192 c-24 -53 -46 -103 -49 -109 -3 -9 5 -13 26 -13 20 0 31 5
31 14 0 8 14 45 30 82 l31 67 34 -72 c19 -40 33 -77 29 -82 -3 -5 9 -9 25 -9
17 0 31 2 31 4 0 2 -20 47 -45 99 -25 53 -45 101 -45 107 0 5 -12 10 -27 10
-26 -1 -32 -9 -71 -98z"/>
<path d="M8022 3274 c-38 -27 -21 -104 24 -104 21 0 18 -8 -22 -56 l-35 -44
35 0 c20 0 36 5 36 10 0 6 10 26 23 45 18 28 28 35 55 35 31 0 32 -1 32 -45 0
-42 2 -45 28 -45 l27 0 -3 110 -3 110 -87 0 c-63 0 -94 -4 -110 -16z m148 -44
c0 -31 -2 -32 -45 -32 -59 0 -73 3 -79 18 -11 29 13 44 70 44 53 0 54 0 54
-30z"/>
</g>
</svg>
